# MagicaVoxel @ Ephtracy

# group
o 

# material
mtllib Gun1-5.mtl
usemtl palette

# normals
vn -1 0 0
vn 1 0 0
vn 0 0 1
vn 0 0 -1
vn 0 -1 0
vn 0 1 0

# texcoords
vt 0.943359 0.5
vt 0.970703 0.5
vt 0.974609 0.5

# verts
v 6 2.1 0.3
v 6 2.1 -0.2
v 6 2.1 -0.3
v 6 2.2 0.2
v 6 2.2 -0.2
v 6 2.2 -0.3
v 6 2.6 0.3
v 6 2.6 0.2
v 6 2.6 -0.2
v 6 2.7 0.3
v 6 2.7 0.2
v 6 2.7 -0.3
v 8.6 2.1 0.3
v 8.6 2.1 -0.2
v 8.6 2.1 -0.3
v 8.6 2.2 0.2
v 8.6 2.2 -0.2
v 8.6 2.2 -0.3
v 8.6 2.6 0.3
v 8.6 2.6 0.2
v 8.6 2.6 -0.2
v 8.6 2.7 0.3
v 8.6 2.7 0.2
v 8.6 2.7 -0.3
v 6 2.1 0.3
v 6 2.6 0.3
v 6 2.7 0.3
v 6.2 2.1 0.3
v 6.2 2.6 0.3
v 6.4 2.1 0.3
v 6.4 2.6 0.3
v 6.5 2.4 0.3
v 6.5 2.6 0.3
v 6.7 2.4 0.3
v 6.7 2.6 0.3
v 6.8 2.4 0.3
v 6.8 2.6 0.3
v 7 2.4 0.3
v 7 2.6 0.3
v 7.3 2.4 0.3
v 7.3 2.6 0.3
v 7.5 2.4 0.3
v 7.5 2.6 0.3
v 7.7 2.4 0.3
v 7.7 2.6 0.3
v 7.9 2.4 0.3
v 7.9 2.6 0.3
v 8 2.4 0.3
v 8 2.6 0.3
v 8.2 2.4 0.3
v 8.2 2.6 0.3
v 8.3 2.1 0.3
v 8.3 2.6 0.3
v 8.4 2.1 0.3
v 8.4 2.6 0.3
v 8.6 2.1 0.3
v 8.6 2.6 0.3
v 8.6 2.7 0.3
v 6 2.1 -0.3
v 6 2.2 -0.3
v 6 2.7 -0.3
v 6.2 2.2 -0.3
v 6.2 2.7 -0.3
v 6.4 2.2 -0.3
v 6.4 2.7 -0.3
v 6.5 2.2 -0.3
v 6.5 2.3 -0.3
v 6.7 2.2 -0.3
v 6.7 2.3 -0.3
v 6.8 2.2 -0.3
v 6.8 2.3 -0.3
v 7 2.2 -0.3
v 7 2.3 -0.3
v 7.3 2.2 -0.3
v 7.3 2.3 -0.3
v 7.5 2.2 -0.3
v 7.5 2.3 -0.3
v 7.7 2.2 -0.3
v 7.7 2.3 -0.3
v 7.9 2.2 -0.3
v 7.9 2.3 -0.3
v 8 2.2 -0.3
v 8 2.3 -0.3
v 8.2 2.2 -0.3
v 8.2 2.3 -0.3
v 8.3 2.2 -0.3
v 8.3 2.7 -0.3
v 8.4 2.2 -0.3
v 8.4 2.7 -0.3
v 8.6 2.1 -0.3
v 8.6 2.2 -0.3
v 8.6 2.7 -0.3
v 6 2.1 0.3
v 6.2 2.1 0.3
v 6.4 2.1 0.3
v 8.3 2.1 0.3
v 8.4 2.1 0.3
v 8.6 2.1 0.3
v 6.5 2.1 0
v 6.7 2.1 0
v 6.8 2.1 0
v 7 2.1 0
v 7.3 2.1 0
v 7.5 2.1 0
v 7.7 2.1 0
v 7.9 2.1 0
v 8 2.1 0
v 8.2 2.1 0
v 6 2.1 -0.2
v 6.2 2.1 -0.2
v 6.4 2.1 -0.2
v 6.5 2.1 -0.2
v 6.7 2.1 -0.2
v 6.8 2.1 -0.2
v 7 2.1 -0.2
v 7.3 2.1 -0.2
v 7.5 2.1 -0.2
v 7.7 2.1 -0.2
v 7.9 2.1 -0.2
v 8 2.1 -0.2
v 8.2 2.1 -0.2
v 8.3 2.1 -0.2
v 8.4 2.1 -0.2
v 8.6 2.1 -0.2
v 6 2.1 -0.3
v 8.6 2.1 -0.3
v 6 2.7 0.3
v 8.6 2.7 0.3
v 6 2.7 0.2
v 6.2 2.7 0.2
v 6.4 2.7 0.2
v 6.5 2.7 0.2
v 6.7 2.7 0.2
v 6.8 2.7 0.2
v 7 2.7 0.2
v 7.3 2.7 0.2
v 7.5 2.7 0.2
v 7.7 2.7 0.2
v 7.9 2.7 0.2
v 8 2.7 0.2
v 8.2 2.7 0.2
v 8.3 2.7 0.2
v 8.4 2.7 0.2
v 8.6 2.7 0.2
v 6.5 2.7 0.1
v 6.7 2.7 0.1
v 6.8 2.7 0.1
v 7 2.7 0.1
v 7.3 2.7 0.1
v 7.5 2.7 0.1
v 7.7 2.7 0.1
v 7.9 2.7 0.1
v 8 2.7 0.1
v 8.2 2.7 0.1
v 6 2.7 -0.3
v 6.2 2.7 -0.3
v 6.4 2.7 -0.3
v 8.3 2.7 -0.3
v 8.4 2.7 -0.3
v 8.6 2.7 -0.3

# faces
f 4/3/1 2/3/1 1/3/1
f 5/2/1 3/2/1 2/2/1
f 5/3/1 2/3/1 4/3/1
f 6/2/1 3/2/1 5/2/1
f 7/3/1 4/3/1 1/3/1
f 8/1/1 5/1/1 4/1/1
f 8/3/1 4/3/1 7/3/1
f 9/3/1 6/3/1 5/3/1
f 9/1/1 5/1/1 8/1/1
f 10/2/1 8/2/1 7/2/1
f 11/3/1 9/3/1 8/3/1
f 11/2/1 8/2/1 10/2/1
f 12/3/1 6/3/1 9/3/1
f 12/3/1 9/3/1 11/3/1
f 13/3/2 14/3/2 16/3/2
f 14/2/2 15/2/2 17/2/2
f 16/3/2 14/3/2 17/3/2
f 17/2/2 15/2/2 18/2/2
f 13/3/2 16/3/2 19/3/2
f 16/1/2 17/1/2 20/1/2
f 19/3/2 16/3/2 20/3/2
f 17/3/2 18/3/2 21/3/2
f 20/1/2 17/1/2 21/1/2
f 19/2/2 20/2/2 22/2/2
f 20/3/2 21/3/2 23/3/2
f 22/2/2 20/2/2 23/2/2
f 21/3/2 18/3/2 24/3/2
f 23/3/2 21/3/2 24/3/2
f 28/3/3 26/3/3 25/3/3
f 29/2/3 27/2/3 26/2/3
f 29/3/3 26/3/3 28/3/3
f 30/1/3 29/1/3 28/1/3
f 31/2/3 27/2/3 29/2/3
f 31/1/3 29/1/3 30/1/3
f 32/3/3 31/3/3 30/3/3
f 33/2/3 27/2/3 31/2/3
f 33/3/3 31/3/3 32/3/3
f 34/3/3 32/3/3 30/3/3
f 34/1/3 33/1/3 32/1/3
f 35/2/3 27/2/3 33/2/3
f 35/1/3 33/1/3 34/1/3
f 36/3/3 34/3/3 30/3/3
f 36/3/3 35/3/3 34/3/3
f 37/2/3 27/2/3 35/2/3
f 37/3/3 35/3/3 36/3/3
f 38/3/3 36/3/3 30/3/3
f 38/1/3 37/1/3 36/1/3
f 39/2/3 27/2/3 37/2/3
f 39/1/3 37/1/3 38/1/3
f 40/3/3 38/3/3 30/3/3
f 40/3/3 39/3/3 38/3/3
f 41/2/3 27/2/3 39/2/3
f 41/3/3 39/3/3 40/3/3
f 42/3/3 40/3/3 30/3/3
f 42/1/3 41/1/3 40/1/3
f 43/2/3 27/2/3 41/2/3
f 43/1/3 41/1/3 42/1/3
f 44/3/3 42/3/3 30/3/3
f 44/3/3 43/3/3 42/3/3
f 45/2/3 27/2/3 43/2/3
f 45/3/3 43/3/3 44/3/3
f 46/3/3 44/3/3 30/3/3
f 46/1/3 45/1/3 44/1/3
f 47/2/3 27/2/3 45/2/3
f 47/1/3 45/1/3 46/1/3
f 48/3/3 46/3/3 30/3/3
f 48/3/3 47/3/3 46/3/3
f 49/2/3 27/2/3 47/2/3
f 49/3/3 47/3/3 48/3/3
f 50/3/3 48/3/3 30/3/3
f 50/1/3 49/1/3 48/1/3
f 51/2/3 27/2/3 49/2/3
f 51/1/3 49/1/3 50/1/3
f 52/3/3 50/3/3 30/3/3
f 52/3/3 51/3/3 50/3/3
f 53/2/3 27/2/3 51/2/3
f 53/3/3 51/3/3 52/3/3
f 54/1/3 53/1/3 52/1/3
f 55/2/3 27/2/3 53/2/3
f 55/1/3 53/1/3 54/1/3
f 56/3/3 55/3/3 54/3/3
f 57/2/3 27/2/3 55/2/3
f 57/3/3 55/3/3 56/3/3
f 58/2/3 27/2/3 57/2/3
f 59/2/4 60/2/4 62/2/4
f 60/3/4 61/3/4 62/3/4
f 62/3/4 61/3/4 63/3/4
f 59/2/4 62/2/4 64/2/4
f 62/1/4 63/1/4 64/1/4
f 64/1/4 63/1/4 65/1/4
f 59/2/4 64/2/4 66/2/4
f 64/3/4 65/3/4 66/3/4
f 66/3/4 65/3/4 67/3/4
f 59/2/4 66/2/4 68/2/4
f 66/1/4 67/1/4 68/1/4
f 67/3/4 65/3/4 69/3/4
f 68/1/4 67/1/4 69/1/4
f 59/2/4 68/2/4 70/2/4
f 68/3/4 69/3/4 70/3/4
f 69/3/4 65/3/4 71/3/4
f 70/3/4 69/3/4 71/3/4
f 59/2/4 70/2/4 72/2/4
f 70/1/4 71/1/4 72/1/4
f 71/3/4 65/3/4 73/3/4
f 72/1/4 71/1/4 73/1/4
f 59/2/4 72/2/4 74/2/4
f 72/3/4 73/3/4 74/3/4
f 73/3/4 65/3/4 75/3/4
f 74/3/4 73/3/4 75/3/4
f 59/2/4 74/2/4 76/2/4
f 74/1/4 75/1/4 76/1/4
f 75/3/4 65/3/4 77/3/4
f 76/1/4 75/1/4 77/1/4
f 59/2/4 76/2/4 78/2/4
f 76/3/4 77/3/4 78/3/4
f 77/3/4 65/3/4 79/3/4
f 78/3/4 77/3/4 79/3/4
f 59/2/4 78/2/4 80/2/4
f 78/1/4 79/1/4 80/1/4
f 79/3/4 65/3/4 81/3/4
f 80/1/4 79/1/4 81/1/4
f 59/2/4 80/2/4 82/2/4
f 80/3/4 81/3/4 82/3/4
f 81/3/4 65/3/4 83/3/4
f 82/3/4 81/3/4 83/3/4
f 59/2/4 82/2/4 84/2/4
f 82/1/4 83/1/4 84/1/4
f 83/3/4 65/3/4 85/3/4
f 84/1/4 83/1/4 85/1/4
f 59/2/4 84/2/4 86/2/4
f 84/3/4 85/3/4 86/3/4
f 85/3/4 65/3/4 87/3/4
f 86/3/4 85/3/4 87/3/4
f 59/2/4 86/2/4 88/2/4
f 86/1/4 87/1/4 88/1/4
f 88/1/4 87/1/4 89/1/4
f 59/2/4 88/2/4 90/2/4
f 88/3/4 89/3/4 91/3/4
f 90/2/4 88/2/4 91/2/4
f 91/3/4 89/3/4 92/3/4
f 99/3/5 96/3/5 95/3/5
f 100/3/5 96/3/5 99/3/5
f 101/3/5 96/3/5 100/3/5
f 102/3/5 96/3/5 101/3/5
f 103/3/5 96/3/5 102/3/5
f 104/3/5 96/3/5 103/3/5
f 105/3/5 96/3/5 104/3/5
f 106/3/5 96/3/5 105/3/5
f 107/3/5 96/3/5 106/3/5
f 108/3/5 96/3/5 107/3/5
f 109/3/5 94/3/5 93/3/5
f 110/1/5 95/1/5 94/1/5
f 110/3/5 94/3/5 109/3/5
f 111/3/5 99/3/5 95/3/5
f 111/1/5 95/1/5 110/1/5
f 112/1/5 100/1/5 99/1/5
f 112/3/5 99/3/5 111/3/5
f 113/3/5 101/3/5 100/3/5
f 113/1/5 100/1/5 112/1/5
f 114/1/5 102/1/5 101/1/5
f 114/3/5 101/3/5 113/3/5
f 115/3/5 103/3/5 102/3/5
f 115/1/5 102/1/5 114/1/5
f 116/1/5 104/1/5 103/1/5
f 116/3/5 103/3/5 115/3/5
f 117/3/5 105/3/5 104/3/5
f 117/1/5 104/1/5 116/1/5
f 118/1/5 106/1/5 105/1/5
f 118/3/5 105/3/5 117/3/5
f 119/3/5 107/3/5 106/3/5
f 119/1/5 106/1/5 118/1/5
f 120/1/5 108/1/5 107/1/5
f 120/3/5 107/3/5 119/3/5
f 121/3/5 96/3/5 108/3/5
f 121/1/5 108/1/5 120/1/5
f 122/1/5 97/1/5 96/1/5
f 122/3/5 96/3/5 121/3/5
f 123/3/5 98/3/5 97/3/5
f 123/1/5 97/1/5 122/1/5
f 124/3/5 98/3/5 123/3/5
f 125/2/5 120/2/5 119/2/5
f 125/2/5 122/2/5 121/2/5
f 125/2/5 124/2/5 123/2/5
f 125/2/5 123/2/5 122/2/5
f 125/2/5 119/2/5 118/2/5
f 125/2/5 118/2/5 117/2/5
f 125/2/5 117/2/5 116/2/5
f 125/2/5 116/2/5 115/2/5
f 125/2/5 115/2/5 114/2/5
f 125/2/5 114/2/5 113/2/5
f 125/2/5 113/2/5 112/2/5
f 125/2/5 112/2/5 111/2/5
f 125/2/5 111/2/5 110/2/5
f 125/2/5 110/2/5 109/2/5
f 125/2/5 121/2/5 120/2/5
f 126/2/5 124/2/5 125/2/5
f 127/2/6 128/2/6 129/2/6
f 129/2/6 128/2/6 130/2/6
f 130/2/6 128/2/6 131/2/6
f 131/2/6 128/2/6 132/2/6
f 132/2/6 128/2/6 133/2/6
f 133/2/6 128/2/6 134/2/6
f 134/2/6 128/2/6 135/2/6
f 135/2/6 128/2/6 136/2/6
f 136/2/6 128/2/6 137/2/6
f 137/2/6 128/2/6 138/2/6
f 138/2/6 128/2/6 139/2/6
f 139/2/6 128/2/6 140/2/6
f 140/2/6 128/2/6 141/2/6
f 141/2/6 128/2/6 142/2/6
f 142/2/6 128/2/6 143/2/6
f 143/2/6 128/2/6 144/2/6
f 131/3/6 132/3/6 145/3/6
f 132/1/6 133/1/6 145/1/6
f 133/3/6 134/3/6 146/3/6
f 145/1/6 133/1/6 146/1/6
f 134/1/6 135/1/6 147/1/6
f 146/3/6 134/3/6 147/3/6
f 135/3/6 136/3/6 148/3/6
f 147/1/6 135/1/6 148/1/6
f 136/1/6 137/1/6 149/1/6
f 148/3/6 136/3/6 149/3/6
f 137/3/6 138/3/6 150/3/6
f 149/1/6 137/1/6 150/1/6
f 138/1/6 139/1/6 151/1/6
f 150/3/6 138/3/6 151/3/6
f 139/3/6 140/3/6 152/3/6
f 151/1/6 139/1/6 152/1/6
f 140/1/6 141/1/6 153/1/6
f 152/3/6 140/3/6 153/3/6
f 141/3/6 142/3/6 154/3/6
f 153/1/6 141/1/6 154/1/6
f 129/3/6 130/3/6 155/3/6
f 130/1/6 131/1/6 156/1/6
f 155/3/6 130/3/6 156/3/6
f 131/3/6 145/3/6 157/3/6
f 156/1/6 131/1/6 157/1/6
f 145/3/6 146/3/6 157/3/6
f 153/3/6 154/3/6 157/3/6
f 146/3/6 147/3/6 157/3/6
f 152/3/6 153/3/6 157/3/6
f 151/3/6 152/3/6 157/3/6
f 150/3/6 151/3/6 157/3/6
f 149/3/6 150/3/6 157/3/6
f 148/3/6 149/3/6 157/3/6
f 147/3/6 148/3/6 157/3/6
f 154/3/6 142/3/6 158/3/6
f 157/3/6 154/3/6 158/3/6
f 142/1/6 143/1/6 158/1/6
f 143/3/6 144/3/6 159/3/6
f 158/1/6 143/1/6 159/1/6
f 159/3/6 144/3/6 160/3/6
