# MagicaVoxel @ Ephtracy

# group
o 

# material
mtllib Gun1-4.mtl
usemtl palette

# normals
vn -1 0 0
vn 1 0 0
vn 0 0 1
vn 0 0 -1
vn 0 -1 0
vn 0 1 0

# texcoords
vt 0.943359 0.5
vt 0.970703 0.5
vt 0.974609 0.5

# verts
v 7.3 1.9 0.3
v 7.3 1.9 -0.3
v 7.3 2 0.3
v 7.3 2 -0.3
v 7.3 2.4 0.3
v 7.3 2.4 -0.3
v 7.3 2.5 0.3
v 7.3 2.5 -0.3
v 9.1 1.9 0.3
v 9.1 1.9 -0.3
v 9.1 2 0.3
v 9.1 2 -0.3
v 9.1 2.4 0.3
v 9.1 2.4 -0.3
v 9.1 2.5 0.3
v 9.1 2.5 -0.3
v 7.3 1.9 0.3
v 7.3 2 0.3
v 7.3 2.4 0.3
v 7.3 2.5 0.3
v 7.5 2 0.3
v 7.5 2.4 0.3
v 7.8 2 0.3
v 7.8 2.4 0.3
v 8 2 0.3
v 8 2.4 0.3
v 8.4 2 0.3
v 8.4 2.4 0.3
v 8.6 2 0.3
v 8.6 2.4 0.3
v 8.9 2 0.3
v 8.9 2.4 0.3
v 9.1 1.9 0.3
v 9.1 2 0.3
v 9.1 2.4 0.3
v 9.1 2.5 0.3
v 7.3 1.9 -0.3
v 7.3 2 -0.3
v 7.3 2.4 -0.3
v 7.3 2.5 -0.3
v 7.5 2 -0.3
v 7.5 2.4 -0.3
v 7.8 2 -0.3
v 7.8 2.4 -0.3
v 8 2 -0.3
v 8 2.4 -0.3
v 8.4 2 -0.3
v 8.4 2.4 -0.3
v 8.6 2 -0.3
v 8.6 2.4 -0.3
v 8.9 2 -0.3
v 8.9 2.4 -0.3
v 9.1 1.9 -0.3
v 9.1 2 -0.3
v 9.1 2.4 -0.3
v 9.1 2.5 -0.3
v 7.3 1.9 0.3
v 9.1 1.9 0.3
v 7.4 1.9 0.2
v 9 1.9 0.2
v 7.4 1.9 -0.2
v 9 1.9 -0.2
v 7.3 1.9 -0.3
v 9.1 1.9 -0.3
v 7.3 2.5 0.3
v 9.1 2.5 0.3
v 7.4 2.5 0.2
v 7.5 2.5 0.2
v 7.8 2.5 0.2
v 8 2.5 0.2
v 8.4 2.5 0.2
v 8.6 2.5 0.2
v 8.9 2.5 0.2
v 9 2.5 0.2
v 7.4 2.5 -0.2
v 7.5 2.5 -0.2
v 7.8 2.5 -0.2
v 8 2.5 -0.2
v 8.4 2.5 -0.2
v 8.6 2.5 -0.2
v 8.9 2.5 -0.2
v 9 2.5 -0.2
v 7.3 2.5 -0.3
v 9.1 2.5 -0.3

# faces
f 3/2/1 2/2/1 1/2/1
f 4/2/1 2/2/1 3/2/1
f 5/3/1 4/3/1 3/3/1
f 6/3/1 4/3/1 5/3/1
f 7/2/1 6/2/1 5/2/1
f 8/2/1 6/2/1 7/2/1
f 9/2/2 10/2/2 11/2/2
f 11/2/2 10/2/2 12/2/2
f 11/3/2 12/3/2 13/3/2
f 13/3/2 12/3/2 14/3/2
f 13/2/2 14/2/2 15/2/2
f 15/2/2 14/2/2 16/2/2
f 21/2/3 18/2/3 17/2/3
f 21/3/3 19/3/3 18/3/3
f 22/2/3 20/2/3 19/2/3
f 22/3/3 19/3/3 21/3/3
f 23/2/3 21/2/3 17/2/3
f 23/1/3 22/1/3 21/1/3
f 24/2/3 20/2/3 22/2/3
f 24/1/3 22/1/3 23/1/3
f 25/2/3 23/2/3 17/2/3
f 25/3/3 24/3/3 23/3/3
f 26/2/3 20/2/3 24/2/3
f 26/3/3 24/3/3 25/3/3
f 27/2/3 25/2/3 17/2/3
f 27/1/3 26/1/3 25/1/3
f 28/2/3 20/2/3 26/2/3
f 28/1/3 26/1/3 27/1/3
f 29/2/3 27/2/3 17/2/3
f 29/3/3 28/3/3 27/3/3
f 30/2/3 20/2/3 28/2/3
f 30/3/3 28/3/3 29/3/3
f 31/2/3 29/2/3 17/2/3
f 31/1/3 30/1/3 29/1/3
f 32/2/3 20/2/3 30/2/3
f 32/1/3 30/1/3 31/1/3
f 33/2/3 31/2/3 17/2/3
f 34/3/3 32/3/3 31/3/3
f 34/2/3 31/2/3 33/2/3
f 35/2/3 20/2/3 32/2/3
f 35/3/3 32/3/3 34/3/3
f 36/2/3 20/2/3 35/2/3
f 37/2/4 38/2/4 41/2/4
f 38/3/4 39/3/4 41/3/4
f 39/2/4 40/2/4 42/2/4
f 41/3/4 39/3/4 42/3/4
f 37/2/4 41/2/4 43/2/4
f 41/1/4 42/1/4 43/1/4
f 42/2/4 40/2/4 44/2/4
f 43/1/4 42/1/4 44/1/4
f 37/2/4 43/2/4 45/2/4
f 43/3/4 44/3/4 45/3/4
f 44/2/4 40/2/4 46/2/4
f 45/3/4 44/3/4 46/3/4
f 37/2/4 45/2/4 47/2/4
f 45/1/4 46/1/4 47/1/4
f 46/2/4 40/2/4 48/2/4
f 47/1/4 46/1/4 48/1/4
f 37/2/4 47/2/4 49/2/4
f 47/3/4 48/3/4 49/3/4
f 48/2/4 40/2/4 50/2/4
f 49/3/4 48/3/4 50/3/4
f 37/2/4 49/2/4 51/2/4
f 49/1/4 50/1/4 51/1/4
f 50/2/4 40/2/4 52/2/4
f 51/1/4 50/1/4 52/1/4
f 37/2/4 51/2/4 53/2/4
f 51/3/4 52/3/4 54/3/4
f 53/2/4 51/2/4 54/2/4
f 52/2/4 40/2/4 55/2/4
f 54/3/4 52/3/4 55/3/4
f 55/2/4 40/2/4 56/2/4
f 59/2/5 58/2/5 57/2/5
f 60/2/5 58/2/5 59/2/5
f 61/2/5 59/2/5 57/2/5
f 61/3/5 60/3/5 59/3/5
f 62/2/5 58/2/5 60/2/5
f 62/3/5 60/3/5 61/3/5
f 63/2/5 61/2/5 57/2/5
f 63/2/5 62/2/5 61/2/5
f 64/2/5 58/2/5 62/2/5
f 64/2/5 62/2/5 63/2/5
f 65/2/6 66/2/6 67/2/6
f 67/2/6 66/2/6 68/2/6
f 68/2/6 66/2/6 69/2/6
f 69/2/6 66/2/6 70/2/6
f 70/2/6 66/2/6 71/2/6
f 71/2/6 66/2/6 72/2/6
f 72/2/6 66/2/6 73/2/6
f 73/2/6 66/2/6 74/2/6
f 65/2/6 67/2/6 75/2/6
f 67/3/6 68/3/6 75/3/6
f 68/1/6 69/1/6 76/1/6
f 75/3/6 68/3/6 76/3/6
f 69/3/6 70/3/6 77/3/6
f 76/1/6 69/1/6 77/1/6
f 70/1/6 71/1/6 78/1/6
f 77/3/6 70/3/6 78/3/6
f 71/3/6 72/3/6 79/3/6
f 78/1/6 71/1/6 79/1/6
f 72/1/6 73/1/6 80/1/6
f 79/3/6 72/3/6 80/3/6
f 73/3/6 74/3/6 81/3/6
f 80/1/6 73/1/6 81/1/6
f 74/2/6 66/2/6 82/2/6
f 81/3/6 74/3/6 82/3/6
f 80/2/6 81/2/6 83/2/6
f 79/2/6 80/2/6 83/2/6
f 81/2/6 82/2/6 83/2/6
f 78/2/6 79/2/6 83/2/6
f 77/2/6 78/2/6 83/2/6
f 76/2/6 77/2/6 83/2/6
f 75/2/6 76/2/6 83/2/6
f 65/2/6 75/2/6 83/2/6
f 82/2/6 66/2/6 84/2/6
f 83/2/6 82/2/6 84/2/6
