# MagicaVoxel @ Ephtracy

# group
o 

# material
mtllib Gun1-10.mtl
usemtl palette

# normals
vn -1 0 0
vn 1 0 0
vn 0 0 1
vn 0 0 -1
vn 0 -1 0
vn 0 1 0

# texcoords
vt 0.939453 0.5
vt 0.943359 0.5
vt 0.970703 0.5
vt 0.974609 0.5

# verts
v 6.8 1 0.1
v 6.8 1 -0.3
v 6.8 1.2 0.1
v 6.8 1.2 -0.3
v 6.8 1.4 0.1
v 6.8 1.4 -0.3
v 6.8 1.7 0.1
v 6.8 1.7 -0.3
v 6.8 1.9 0.1
v 6.8 1.9 -0.3
v 6.8 2.1 0.1
v 6.8 2.1 -0.3
v 6.8 2.3 0.1
v 6.8 2.3 -0.3
v 6.8 2.6 0.1
v 6.8 2.6 -0.3
v 7.1 2.6 0.1
v 7.1 2.6 -0.3
v 7.1 3 0.1
v 7.1 3 -0.3
v 7.5 1 0.1
v 7.5 1 -0.3
v 7.5 1.1 0.1
v 7.5 1.1 -0.3
v 7.5 1.4 0.1
v 7.5 1.4 -0.3
v 7.9 1.4 0.1
v 7.9 1.4 -0.3
v 7.9 1.5 0.1
v 7.9 1.5 -0.3
v 7.9 1.8 0.1
v 7.9 1.8 -0.3
v 8.3 2.6 0.1
v 8.3 2.6 -0.3
v 8.3 3 0.1
v 8.3 3 -0.3
v 9.2 1.8 0.1
v 9.2 1.8 -0.3
v 9.2 1.9 0.1
v 9.2 1.9 0
v 9.2 1.9 -0.2
v 9.2 1.9 -0.3
v 9.2 2 0.1
v 9.2 2 0
v 9.2 2 -0.2
v 9.2 2 -0.3
v 9.2 2.4 0.1
v 9.2 2.4 0
v 9.2 2.4 -0.2
v 9.2 2.4 -0.3
v 9.2 2.5 0.1
v 9.2 2.5 0
v 9.2 2.5 -0.2
v 9.2 2.5 -0.3
v 9.2 2.6 0.1
v 9.2 2.6 -0.3
v 6.8 1 0.1
v 6.8 1.2 0.1
v 6.8 1.4 0.1
v 6.8 1.7 0.1
v 6.8 1.9 0.1
v 6.8 2.1 0.1
v 6.8 2.3 0.1
v 6.8 2.6 0.1
v 6.9 1.2 0.1
v 6.9 1.4 0.1
v 6.9 1.7 0.1
v 6.9 1.9 0.1
v 6.9 2.1 0.1
v 6.9 2.3 0.1
v 7 1.4 0.1
v 7 2.6 0.1
v 7.1 1 0.1
v 7.1 1.4 0.1
v 7.1 2.5 0.1
v 7.1 2.6 0.1
v 7.1 3 0.1
v 7.2 1 0.1
v 7.2 1.4 0.1
v 7.2 1.5 0.1
v 7.2 1.6 0.1
v 7.2 2.8 0.1
v 7.2 3 0.1
v 7.3 1.5 0.1
v 7.3 1.6 0.1
v 7.3 1.7 0.1
v 7.3 2.4 0.1
v 7.3 2.5 0.1
v 7.3 2.6 0.1
v 7.4 1 0.1
v 7.4 1.1 0.1
v 7.4 1.6 0.1
v 7.4 1.7 0.1
v 7.4 1.8 0.1
v 7.4 2.6 0.1
v 7.4 2.7 0.1
v 7.4 2.8 0.1
v 7.4 3 0.1
v 7.5 1 0.1
v 7.5 1.1 0.1
v 7.5 1.4 0.1
v 7.5 2.6 0.1
v 7.5 2.7 0.1
v 7.6 1.7 0.1
v 7.6 1.8 0.1
v 7.6 1.9 0.1
v 7.6 2.3 0.1
v 7.6 2.4 0.1
v 7.6 2.5 0.1
v 7.6 2.8 0.1
v 7.6 3 0.1
v 7.7 1.8 0.1
v 7.7 1.9 0.1
v 7.7 2 0.1
v 7.8 1.4 0.1
v 7.8 1.5 0.1
v 7.8 1.9 0.1
v 7.8 2 0.1
v 7.8 2.1 0.1
v 7.8 2.6 0.1
v 7.8 2.7 0.1
v 7.8 2.8 0.1
v 7.8 3 0.1
v 7.9 1.4 0.1
v 7.9 1.5 0.1
v 7.9 1.8 0.1
v 7.9 2.6 0.1
v 7.9 2.7 0.1
v 8 2 0.1
v 8 2.1 0.1
v 8 2.3 0.1
v 8 2.4 0.1
v 8 2.8 0.1
v 8 3 0.1
v 8.1 2.1 0.1
v 8.1 2.2 0.1
v 8.2 2.3 0.1
v 8.2 2.4 0.1
v 8.2 2.8 0.1
v 8.2 3 0.1
v 8.3 2.2 0.1
v 8.3 2.3 0.1
v 8.3 2.6 0.1
v 8.3 3 0.1
v 8.4 2.3 0.1
v 8.4 2.4 0.1
v 8.4 2.5 0.1
v 8.5 2.4 0.1
v 8.5 2.5 0.1
v 8.5 2.6 0.1
v 8.6 2.5 0.1
v 8.6 2.6 0.1
v 8.9 2.1 0.1
v 8.9 2.3 0.1
v 9 2 0.1
v 9 2.1 0.1
v 9 2.3 0.1
v 9 2.4 0.1
v 9.1 1.9 0.1
v 9.1 2 0.1
v 9.1 2.1 0.1
v 9.1 2.3 0.1
v 9.1 2.4 0.1
v 9.1 2.5 0.1
v 9.2 1.8 0.1
v 9.2 1.9 0.1
v 9.2 2 0.1
v 9.2 2.4 0.1
v 9.2 2.5 0.1
v 9.2 2.6 0.1
v 6.8 1 -0.3
v 6.8 1.2 -0.3
v 6.8 1.4 -0.3
v 6.8 1.7 -0.3
v 6.8 1.9 -0.3
v 6.8 2.1 -0.3
v 6.8 2.3 -0.3
v 6.8 2.6 -0.3
v 6.9 1.2 -0.3
v 6.9 1.4 -0.3
v 6.9 1.7 -0.3
v 6.9 1.9 -0.3
v 6.9 2.1 -0.3
v 6.9 2.3 -0.3
v 7 1.4 -0.3
v 7 2.6 -0.3
v 7.1 1 -0.3
v 7.1 1.4 -0.3
v 7.1 2.6 -0.3
v 7.1 3 -0.3
v 7.2 1 -0.3
v 7.2 1.4 -0.3
v 7.2 1.5 -0.3
v 7.2 2.8 -0.3
v 7.2 3 -0.3
v 7.3 1.4 -0.3
v 7.3 1.5 -0.3
v 7.3 1.6 -0.3
v 7.4 1 -0.3
v 7.4 1.1 -0.3
v 7.4 2.6 -0.3
v 7.4 2.7 -0.3
v 7.4 2.8 -0.3
v 7.4 3 -0.3
v 7.5 1 -0.3
v 7.5 1.1 -0.3
v 7.5 1.4 -0.3
v 7.5 1.5 -0.3
v 7.5 1.6 -0.3
v 7.5 1.7 -0.3
v 7.5 2.6 -0.3
v 7.5 2.7 -0.3
v 7.6 1.6 -0.3
v 7.6 1.7 -0.3
v 7.6 1.8 -0.3
v 7.6 2.8 -0.3
v 7.6 3 -0.3
v 7.7 1.7 -0.3
v 7.7 1.8 -0.3
v 7.7 1.9 -0.3
v 7.8 1.4 -0.3
v 7.8 1.5 -0.3
v 7.8 2.6 -0.3
v 7.8 2.7 -0.3
v 7.8 2.8 -0.3
v 7.8 3 -0.3
v 7.9 1.4 -0.3
v 7.9 1.5 -0.3
v 7.9 1.8 -0.3
v 7.9 1.9 -0.3
v 7.9 2 -0.3
v 7.9 2.6 -0.3
v 7.9 2.7 -0.3
v 8 1.9 -0.3
v 8 2 -0.3
v 8 2.1 -0.3
v 8 2.8 -0.3
v 8 3 -0.3
v 8.1 2 -0.3
v 8.1 2.1 -0.3
v 8.1 2.2 -0.3
v 8.2 2.8 -0.3
v 8.2 3 -0.3
v 8.3 2.1 -0.3
v 8.3 2.2 -0.3
v 8.3 2.3 -0.3
v 8.3 2.6 -0.3
v 8.3 3 -0.3
v 8.4 2.2 -0.3
v 8.4 2.3 -0.3
v 8.4 2.4 -0.3
v 8.5 2.3 -0.3
v 8.5 2.4 -0.3
v 8.5 2.5 -0.3
v 8.6 2.5 -0.3
v 8.6 2.6 -0.3
v 8.7 2.4 -0.3
v 8.7 2.6 -0.3
v 8.9 2.1 -0.3
v 8.9 2.3 -0.3
v 9 2 -0.3
v 9 2.1 -0.3
v 9 2.3 -0.3
v 9 2.4 -0.3
v 9.1 1.9 -0.3
v 9.1 2 -0.3
v 9.1 2.1 -0.3
v 9.1 2.3 -0.3
v 9.1 2.4 -0.3
v 9.1 2.5 -0.3
v 9.2 1.8 -0.3
v 9.2 1.9 -0.3
v 9.2 2 -0.3
v 9.2 2.4 -0.3
v 9.2 2.5 -0.3
v 9.2 2.6 -0.3
v 6.8 1 0.1
v 7.1 1 0.1
v 7.2 1 0.1
v 7.4 1 0.1
v 7.5 1 0.1
v 7.1 1 0
v 7.2 1 0
v 7.1 1 -0.2
v 7.2 1 -0.2
v 6.8 1 -0.3
v 7.1 1 -0.3
v 7.2 1 -0.3
v 7.4 1 -0.3
v 7.5 1 -0.3
v 7.5 1.4 0.1
v 7.8 1.4 0.1
v 7.9 1.4 0.1
v 7.5 1.4 -0.3
v 7.8 1.4 -0.3
v 7.9 1.4 -0.3
v 7.9 1.8 0.1
v 9.2 1.8 0.1
v 7.9 1.8 -0.3
v 9.2 1.8 -0.3
v 6.8 2.6 0.1
v 7 2.6 0.1
v 7.1 2.6 0.1
v 8.3 2.6 0.1
v 8.5 2.6 0.1
v 8.6 2.6 0.1
v 9.2 2.6 0.1
v 8.5 2.6 0
v 8.6 2.6 0
v 8.7 2.6 0
v 8.6 2.6 -0.1
v 8.7 2.6 -0.1
v 8.8 2.6 -0.1
v 8.6 2.6 -0.2
v 8.7 2.6 -0.2
v 8.8 2.6 -0.2
v 6.8 2.6 -0.3
v 7 2.6 -0.3
v 7.1 2.6 -0.3
v 8.3 2.6 -0.3
v 8.6 2.6 -0.3
v 8.7 2.6 -0.3
v 9.2 2.6 -0.3
v 7.1 3 0.1
v 7.2 3 0.1
v 7.4 3 0.1
v 7.6 3 0.1
v 7.8 3 0.1
v 8 3 0.1
v 8.2 3 0.1
v 8.3 3 0.1
v 7.1 3 -0.3
v 7.2 3 -0.3
v 7.4 3 -0.3
v 7.6 3 -0.3
v 7.8 3 -0.3
v 8 3 -0.3
v 8.2 3 -0.3
v 8.3 3 -0.3

# faces
f 3/4/1 2/4/1 1/4/1
f 4/4/1 2/4/1 3/4/1
f 5/2/1 4/2/1 3/2/1
f 6/2/1 4/2/1 5/2/1
f 7/4/1 6/4/1 5/4/1
f 8/4/1 6/4/1 7/4/1
f 9/2/1 8/2/1 7/2/1
f 10/2/1 8/2/1 9/2/1
f 11/4/1 10/4/1 9/4/1
f 12/4/1 10/4/1 11/4/1
f 13/2/1 12/2/1 11/2/1
f 14/2/1 12/2/1 13/2/1
f 15/4/1 14/4/1 13/4/1
f 16/4/1 14/4/1 15/4/1
f 19/4/1 18/4/1 17/4/1
f 20/4/1 18/4/1 19/4/1
f 21/2/2 22/2/2 23/2/2
f 23/2/2 22/2/2 24/2/2
f 23/1/2 24/1/2 25/1/2
f 25/1/2 24/1/2 26/1/2
f 27/2/2 28/2/2 29/2/2
f 29/2/2 28/2/2 30/2/2
f 29/1/2 30/1/2 31/1/2
f 31/1/2 30/1/2 32/1/2
f 33/4/2 34/4/2 35/4/2
f 35/4/2 34/4/2 36/4/2
f 37/1/2 38/1/2 39/1/2
f 39/1/2 38/1/2 40/1/2
f 40/1/2 38/1/2 41/1/2
f 41/1/2 38/1/2 42/1/2
f 39/2/2 40/2/2 43/2/2
f 40/1/2 41/1/2 44/1/2
f 43/2/2 40/2/2 44/2/2
f 41/2/2 42/2/2 45/2/2
f 44/1/2 41/1/2 45/1/2
f 45/2/2 42/2/2 46/2/2
f 43/1/2 44/1/2 47/1/2
f 44/2/2 45/2/2 48/2/2
f 47/1/2 44/1/2 48/1/2
f 45/1/2 46/1/2 49/1/2
f 48/2/2 45/2/2 49/2/2
f 49/1/2 46/1/2 50/1/2
f 47/2/2 48/2/2 51/2/2
f 48/1/2 49/1/2 52/1/2
f 51/2/2 48/2/2 52/2/2
f 49/2/2 50/2/2 53/2/2
f 52/1/2 49/1/2 53/1/2
f 53/2/2 50/2/2 54/2/2
f 51/1/2 52/1/2 55/1/2
f 52/1/2 53/1/2 55/1/2
f 53/1/2 54/1/2 55/1/2
f 55/1/2 54/1/2 56/1/2
f 65/4/3 58/4/3 57/4/3
f 65/2/3 59/2/3 58/2/3
f 66/4/3 60/4/3 59/4/3
f 66/2/3 59/2/3 65/2/3
f 67/2/3 61/2/3 60/2/3
f 67/4/3 60/4/3 66/4/3
f 68/4/3 62/4/3 61/4/3
f 68/2/3 61/2/3 67/2/3
f 69/2/3 63/2/3 62/2/3
f 69/4/3 62/4/3 68/4/3
f 70/4/3 64/4/3 63/4/3
f 70/2/3 63/2/3 69/2/3
f 71/4/3 69/4/3 68/4/3
f 71/4/3 68/4/3 67/4/3
f 71/4/3 70/4/3 69/4/3
f 71/4/3 67/4/3 66/4/3
f 71/4/3 66/4/3 65/4/3
f 72/4/3 64/4/3 70/4/3
f 72/4/3 70/4/3 71/4/3
f 73/4/3 71/4/3 65/4/3
f 73/4/3 65/4/3 57/4/3
f 74/2/3 72/2/3 71/2/3
f 74/4/3 71/4/3 73/4/3
f 75/2/3 72/2/3 74/2/3
f 76/2/3 72/2/3 75/2/3
f 78/2/3 74/2/3 73/2/3
f 79/1/3 75/1/3 74/1/3
f 79/2/3 74/2/3 78/2/3
f 80/1/3 75/1/3 79/1/3
f 81/1/3 75/1/3 80/1/3
f 82/4/3 77/4/3 76/4/3
f 83/4/3 77/4/3 82/4/3
f 84/1/3 79/1/3 78/1/3
f 84/1/3 80/1/3 79/1/3
f 84/3/3 81/3/3 80/3/3
f 85/1/3 75/1/3 81/1/3
f 85/3/3 81/3/3 84/3/3
f 86/1/3 75/1/3 85/1/3
f 87/1/3 75/1/3 86/1/3
f 88/3/3 76/3/3 75/3/3
f 88/1/3 75/1/3 87/1/3
f 89/4/3 82/4/3 76/4/3
f 89/3/3 76/3/3 88/3/3
f 90/1/3 84/1/3 78/1/3
f 90/1/3 85/1/3 84/1/3
f 91/1/3 85/1/3 90/1/3
f 92/3/3 86/3/3 85/3/3
f 92/1/3 85/1/3 91/1/3
f 93/1/3 87/1/3 86/1/3
f 93/3/3 86/3/3 92/3/3
f 94/1/3 87/1/3 93/1/3
f 95/4/3 82/4/3 89/4/3
f 95/1/3 89/1/3 88/1/3
f 96/4/3 82/4/3 95/4/3
f 97/2/3 83/2/3 82/2/3
f 97/4/3 82/4/3 96/4/3
f 98/2/3 83/2/3 97/2/3
f 99/2/3 91/2/3 90/2/3
f 100/1/3 92/1/3 91/1/3
f 100/2/3 91/2/3 99/2/3
f 100/1/3 93/1/3 92/1/3
f 101/1/3 93/1/3 100/1/3
f 102/2/3 96/2/3 95/2/3
f 102/1/3 95/1/3 88/1/3
f 103/4/3 98/4/3 97/4/3
f 103/2/3 96/2/3 102/2/3
f 103/4/3 97/4/3 96/4/3
f 104/1/3 93/1/3 101/1/3
f 104/3/3 94/3/3 93/3/3
f 105/1/3 87/1/3 94/1/3
f 105/3/3 94/3/3 104/3/3
f 106/1/3 87/1/3 105/1/3
f 107/1/3 87/1/3 106/1/3
f 108/3/3 88/3/3 87/3/3
f 108/1/3 87/1/3 107/1/3
f 109/1/3 102/1/3 88/1/3
f 109/3/3 88/3/3 108/3/3
f 110/4/3 98/4/3 103/4/3
f 110/4/3 103/4/3 102/4/3
f 111/4/3 98/4/3 110/4/3
f 112/1/3 105/1/3 104/1/3
f 112/3/3 106/3/3 105/3/3
f 113/1/3 107/1/3 106/1/3
f 113/3/3 106/3/3 112/3/3
f 114/1/3 107/1/3 113/1/3
f 115/1/3 104/1/3 101/1/3
f 115/1/3 112/1/3 104/1/3
f 115/1/3 113/1/3 112/1/3
f 116/1/3 113/1/3 115/1/3
f 117/3/3 114/3/3 113/3/3
f 117/1/3 113/1/3 116/1/3
f 118/1/3 107/1/3 114/1/3
f 118/3/3 114/3/3 117/3/3
f 119/1/3 107/1/3 118/1/3
f 120/1/3 102/1/3 109/1/3
f 120/1/3 109/1/3 108/1/3
f 120/4/3 110/4/3 102/4/3
f 121/4/3 110/4/3 120/4/3
f 122/2/3 111/2/3 110/2/3
f 122/4/3 110/4/3 121/4/3
f 123/2/3 111/2/3 122/2/3
f 124/2/3 116/2/3 115/2/3
f 125/1/3 117/1/3 116/1/3
f 125/2/3 116/2/3 124/2/3
f 125/1/3 118/1/3 117/1/3
f 126/1/3 118/1/3 125/1/3
f 127/2/3 121/2/3 120/2/3
f 127/1/3 120/1/3 108/1/3
f 128/4/3 123/4/3 122/4/3
f 128/2/3 121/2/3 127/2/3
f 128/4/3 122/4/3 121/4/3
f 129/3/3 119/3/3 118/3/3
f 129/1/3 118/1/3 126/1/3
f 130/1/3 107/1/3 119/1/3
f 130/3/3 119/3/3 129/3/3
f 131/3/3 108/3/3 107/3/3
f 131/1/3 107/1/3 130/1/3
f 132/1/3 127/1/3 108/1/3
f 132/3/3 108/3/3 131/3/3
f 133/4/3 123/4/3 128/4/3
f 133/4/3 128/4/3 127/4/3
f 134/4/3 123/4/3 133/4/3
f 135/1/3 130/1/3 129/1/3
f 135/3/3 131/3/3 130/3/3
f 136/3/3 131/3/3 135/3/3
f 137/1/3 132/1/3 131/1/3
f 137/3/3 131/3/3 136/3/3
f 138/1/3 127/1/3 132/1/3
f 138/1/3 132/1/3 137/1/3
f 139/2/3 134/2/3 133/2/3
f 139/4/3 133/4/3 127/4/3
f 140/2/3 134/2/3 139/2/3
f 141/3/3 137/3/3 136/3/3
f 141/1/3 136/1/3 135/1/3
f 141/3/3 138/3/3 137/3/3
f 142/3/3 138/3/3 141/3/3
f 143/4/3 140/4/3 139/4/3
f 143/1/3 127/1/3 138/1/3
f 143/4/3 139/4/3 127/4/3
f 144/4/3 140/4/3 143/4/3
f 145/3/3 138/3/3 142/3/3
f 145/1/3 142/1/3 141/1/3
f 146/1/3 143/1/3 138/1/3
f 146/3/3 138/3/3 145/3/3
f 147/1/3 143/1/3 146/1/3
f 148/1/3 146/1/3 145/1/3
f 148/3/3 147/3/3 146/3/3
f 149/1/3 143/1/3 147/1/3
f 149/3/3 147/3/3 148/3/3
f 150/1/3 143/1/3 149/1/3
f 151/1/3 149/1/3 148/1/3
f 151/3/3 150/3/3 149/3/3
f 152/3/3 150/3/3 151/3/3
f 153/1/3 145/1/3 141/1/3
f 153/1/3 141/1/3 135/1/3
f 153/1/3 152/1/3 151/1/3
f 153/1/3 151/1/3 148/1/3
f 153/1/3 135/1/3 129/1/3
f 153/1/3 148/1/3 145/1/3
f 154/1/3 152/1/3 153/1/3
f 155/1/3 129/1/3 126/1/3
f 155/1/3 153/1/3 129/1/3
f 156/2/3 154/2/3 153/2/3
f 156/1/3 153/1/3 155/1/3
f 157/1/3 152/1/3 154/1/3
f 157/2/3 154/2/3 156/2/3
f 158/1/3 152/1/3 157/1/3
f 159/1/3 155/1/3 126/1/3
f 160/2/3 156/2/3 155/2/3
f 160/1/3 155/1/3 159/1/3
f 161/1/3 157/1/3 156/1/3
f 161/2/3 156/2/3 160/2/3
f 162/2/3 158/2/3 157/2/3
f 162/1/3 157/1/3 161/1/3
f 163/1/3 152/1/3 158/1/3
f 163/2/3 158/2/3 162/2/3
f 164/1/3 152/1/3 163/1/3
f 165/1/3 159/1/3 126/1/3
f 166/2/3 160/2/3 159/2/3
f 166/1/3 159/1/3 165/1/3
f 167/1/3 162/1/3 161/1/3
f 167/2/3 160/2/3 166/2/3
f 167/1/3 161/1/3 160/1/3
f 167/1/3 163/1/3 162/1/3
f 168/2/3 164/2/3 163/2/3
f 168/1/3 163/1/3 167/1/3
f 169/1/3 152/1/3 164/1/3
f 169/2/3 164/2/3 168/2/3
f 170/1/3 152/1/3 169/1/3
f 171/4/4 172/4/4 179/4/4
f 172/2/4 173/2/4 179/2/4
f 173/4/4 174/4/4 180/4/4
f 179/2/4 173/2/4 180/2/4
f 174/2/4 175/2/4 181/2/4
f 180/4/4 174/4/4 181/4/4
f 175/4/4 176/4/4 182/4/4
f 181/2/4 175/2/4 182/2/4
f 176/2/4 177/2/4 183/2/4
f 182/4/4 176/4/4 183/4/4
f 177/4/4 178/4/4 184/4/4
f 183/2/4 177/2/4 184/2/4
f 182/4/4 183/4/4 185/4/4
f 181/4/4 182/4/4 185/4/4
f 183/4/4 184/4/4 185/4/4
f 180/4/4 181/4/4 185/4/4
f 179/4/4 180/4/4 185/4/4
f 184/4/4 178/4/4 186/4/4
f 185/4/4 184/4/4 186/4/4
f 179/4/4 185/4/4 187/4/4
f 171/4/4 179/4/4 187/4/4
f 185/2/4 186/2/4 188/2/4
f 187/4/4 185/4/4 188/4/4
f 188/2/4 186/2/4 189/2/4
f 187/2/4 188/2/4 191/2/4
f 188/1/4 189/1/4 192/1/4
f 191/2/4 188/2/4 192/2/4
f 192/1/4 189/1/4 193/1/4
f 189/4/4 190/4/4 194/4/4
f 194/4/4 190/4/4 195/4/4
f 191/1/4 192/1/4 196/1/4
f 192/3/4 193/3/4 196/3/4
f 193/1/4 189/1/4 197/1/4
f 196/3/4 193/3/4 197/3/4
f 197/1/4 189/1/4 198/1/4
f 191/1/4 196/1/4 199/1/4
f 196/1/4 197/1/4 199/1/4
f 199/1/4 197/1/4 200/1/4
f 198/1/4 189/1/4 201/1/4
f 189/4/4 194/4/4 201/4/4
f 201/4/4 194/4/4 202/4/4
f 194/2/4 195/2/4 203/2/4
f 202/4/4 194/4/4 203/4/4
f 203/2/4 195/2/4 204/2/4
f 199/2/4 200/2/4 205/2/4
f 200/1/4 197/1/4 206/1/4
f 205/2/4 200/2/4 206/2/4
f 206/1/4 197/1/4 207/1/4
f 197/3/4 198/3/4 208/3/4
f 207/1/4 197/1/4 208/1/4
f 198/1/4 201/1/4 209/1/4
f 208/3/4 198/3/4 209/3/4
f 209/1/4 201/1/4 210/1/4
f 201/2/4 202/2/4 211/2/4
f 210/1/4 201/1/4 211/1/4
f 202/4/4 203/4/4 212/4/4
f 211/2/4 202/2/4 212/2/4
f 203/4/4 204/4/4 212/4/4
f 209/3/4 210/3/4 213/3/4
f 207/1/4 208/1/4 213/1/4
f 208/1/4 209/1/4 213/1/4
f 210/1/4 211/1/4 214/1/4
f 213/3/4 210/3/4 214/3/4
f 214/1/4 211/1/4 215/1/4
f 212/4/4 204/4/4 216/4/4
f 211/4/4 212/4/4 216/4/4
f 216/4/4 204/4/4 217/4/4
f 214/3/4 215/3/4 218/3/4
f 213/1/4 214/1/4 218/1/4
f 215/1/4 211/1/4 219/1/4
f 218/3/4 215/3/4 219/3/4
f 219/1/4 211/1/4 220/1/4
f 213/1/4 218/1/4 221/1/4
f 207/1/4 213/1/4 221/1/4
f 218/1/4 219/1/4 221/1/4
f 221/1/4 219/1/4 222/1/4
f 220/1/4 211/1/4 223/1/4
f 211/4/4 216/4/4 223/4/4
f 223/4/4 216/4/4 224/4/4
f 216/2/4 217/2/4 225/2/4
f 224/4/4 216/4/4 225/4/4
f 225/2/4 217/2/4 226/2/4
f 221/2/4 222/2/4 227/2/4
f 222/1/4 219/1/4 228/1/4
f 227/2/4 222/2/4 228/2/4
f 219/3/4 220/3/4 229/3/4
f 228/1/4 219/1/4 229/1/4
f 220/1/4 223/1/4 230/1/4
f 229/3/4 220/3/4 230/3/4
f 230/1/4 223/1/4 231/1/4
f 223/2/4 224/2/4 232/2/4
f 231/1/4 223/1/4 232/1/4
f 224/4/4 225/4/4 233/4/4
f 232/2/4 224/2/4 233/2/4
f 225/4/4 226/4/4 233/4/4
f 230/3/4 231/3/4 234/3/4
f 229/1/4 230/1/4 234/1/4
f 231/1/4 232/1/4 235/1/4
f 234/3/4 231/3/4 235/3/4
f 235/1/4 232/1/4 236/1/4
f 233/4/4 226/4/4 237/4/4
f 232/4/4 233/4/4 237/4/4
f 237/4/4 226/4/4 238/4/4
f 235/3/4 236/3/4 239/3/4
f 234/1/4 235/1/4 239/1/4
f 236/1/4 232/1/4 240/1/4
f 239/3/4 236/3/4 240/3/4
f 240/1/4 232/1/4 241/1/4
f 237/2/4 238/2/4 242/2/4
f 232/4/4 237/4/4 242/4/4
f 242/2/4 238/2/4 243/2/4
f 240/3/4 241/3/4 244/3/4
f 239/1/4 240/1/4 244/1/4
f 241/1/4 232/1/4 245/1/4
f 244/3/4 241/3/4 245/3/4
f 245/1/4 232/1/4 246/1/4
f 242/4/4 243/4/4 247/4/4
f 246/1/4 232/1/4 247/1/4
f 232/4/4 242/4/4 247/4/4
f 247/4/4 243/4/4 248/4/4
f 245/3/4 246/3/4 249/3/4
f 244/1/4 245/1/4 249/1/4
f 246/1/4 247/1/4 250/1/4
f 249/3/4 246/3/4 250/3/4
f 250/1/4 247/1/4 251/1/4
f 249/1/4 250/1/4 252/1/4
f 250/3/4 251/3/4 252/3/4
f 251/1/4 247/1/4 253/1/4
f 252/3/4 251/3/4 253/3/4
f 253/1/4 247/1/4 254/1/4
f 253/3/4 254/3/4 255/3/4
f 254/1/4 247/1/4 255/1/4
f 255/1/4 247/1/4 256/1/4
f 252/1/4 253/1/4 257/1/4
f 253/3/4 255/3/4 257/3/4
f 255/3/4 256/3/4 257/3/4
f 257/3/4 256/3/4 258/3/4
f 239/1/4 244/1/4 259/1/4
f 244/1/4 249/1/4 259/1/4
f 257/1/4 258/1/4 259/1/4
f 252/1/4 257/1/4 259/1/4
f 249/1/4 252/1/4 259/1/4
f 259/1/4 258/1/4 260/1/4
f 234/1/4 239/1/4 261/1/4
f 239/1/4 259/1/4 261/1/4
f 259/2/4 260/2/4 262/2/4
f 261/1/4 259/1/4 262/1/4
f 260/1/4 258/1/4 263/1/4
f 262/2/4 260/2/4 263/2/4
f 263/1/4 258/1/4 264/1/4
f 229/1/4 234/1/4 265/1/4
f 234/1/4 261/1/4 265/1/4
f 261/2/4 262/2/4 266/2/4
f 265/1/4 261/1/4 266/1/4
f 262/1/4 263/1/4 267/1/4
f 266/2/4 262/2/4 267/2/4
f 263/2/4 264/2/4 268/2/4
f 267/1/4 263/1/4 268/1/4
f 264/1/4 258/1/4 269/1/4
f 268/2/4 264/2/4 269/2/4
f 269/1/4 258/1/4 270/1/4
f 229/1/4 265/1/4 271/1/4
f 265/2/4 266/2/4 272/2/4
f 271/1/4 265/1/4 272/1/4
f 267/1/4 268/1/4 273/1/4
f 272/2/4 266/2/4 273/2/4
f 266/1/4 267/1/4 273/1/4
f 268/1/4 269/1/4 273/1/4
f 269/2/4 270/2/4 274/2/4
f 273/1/4 269/1/4 274/1/4
f 270/1/4 258/1/4 275/1/4
f 274/2/4 270/2/4 275/2/4
f 275/1/4 258/1/4 276/1/4
f 282/4/5 278/4/5 277/4/5
f 282/2/5 279/2/5 278/2/5
f 283/1/5 280/1/5 279/1/5
f 283/2/5 279/2/5 282/2/5
f 284/4/5 282/4/5 277/4/5
f 284/4/5 283/4/5 282/4/5
f 285/1/5 280/1/5 283/1/5
f 285/4/5 283/4/5 284/4/5
f 286/4/5 284/4/5 277/4/5
f 287/2/5 285/2/5 284/2/5
f 287/4/5 284/4/5 286/4/5
f 288/1/5 280/1/5 285/1/5
f 288/2/5 285/2/5 287/2/5
f 289/2/5 281/2/5 280/2/5
f 289/1/5 280/1/5 288/1/5
f 290/2/5 281/2/5 289/2/5
f 294/1/5 292/1/5 291/1/5
f 295/2/5 293/2/5 292/2/5
f 295/1/5 292/1/5 294/1/5
f 296/2/5 293/2/5 295/2/5
f 299/1/5 298/1/5 297/1/5
f 300/1/5 298/1/5 299/1/5
f 304/1/6 305/1/6 308/1/6
f 305/3/6 306/3/6 308/3/6
f 306/1/6 307/1/6 309/1/6
f 308/3/6 306/3/6 309/3/6
f 309/1/6 307/1/6 310/1/6
f 308/1/6 309/1/6 311/1/6
f 309/3/6 310/3/6 311/3/6
f 310/1/6 307/1/6 312/1/6
f 311/3/6 310/3/6 312/3/6
f 312/1/6 307/1/6 313/1/6
f 308/1/6 311/1/6 314/1/6
f 311/1/6 312/1/6 314/1/6
f 312/3/6 313/3/6 315/3/6
f 314/1/6 312/1/6 315/1/6
f 313/1/6 307/1/6 316/1/6
f 315/3/6 313/3/6 316/3/6
f 301/4/6 302/4/6 317/4/6
f 302/2/6 303/2/6 318/2/6
f 317/4/6 302/4/6 318/4/6
f 318/2/6 303/2/6 319/2/6
f 304/1/6 308/1/6 320/1/6
f 308/1/6 314/1/6 320/1/6
f 314/3/6 315/3/6 321/3/6
f 320/1/6 314/1/6 321/1/6
f 315/1/6 316/1/6 322/1/6
f 321/3/6 315/3/6 322/3/6
f 316/1/6 307/1/6 323/1/6
f 322/1/6 316/1/6 323/1/6
f 324/4/6 325/4/6 332/4/6
f 325/2/6 326/2/6 333/2/6
f 332/4/6 325/4/6 333/4/6
f 326/4/6 327/4/6 334/4/6
f 333/2/6 326/2/6 334/2/6
f 327/2/6 328/2/6 335/2/6
f 334/4/6 327/4/6 335/4/6
f 328/4/6 329/4/6 336/4/6
f 335/2/6 328/2/6 336/2/6
f 329/2/6 330/2/6 337/2/6
f 336/4/6 329/4/6 337/4/6
f 330/4/6 331/4/6 338/4/6
f 337/2/6 330/2/6 338/2/6
f 338/4/6 331/4/6 339/4/6
